<svg width="168" height="112" viewBox="0 0 168 112" fill="none" xmlns="http://www.w3.org/2000/svg">
<path d="M78.2237 88.083H71.0682C70.9643 88.083 70.9123 88.018 70.9123 87.888L70.9903 60.4557C70.9903 60.3517 71.0423 60.2997 71.1462 60.2997H78.8281C80.3229 60.2997 81.6812 60.6636 82.903 61.3915C84.0988 62.1194 85.0411 63.0878 85.73 64.2966C86.4189 65.4924 86.7634 66.7922 86.7634 68.196C86.7634 69.3398 86.5034 70.4057 85.9835 71.3935C85.4636 72.3814 84.8462 73.1807 84.1313 73.7917C84.8982 74.5585 85.4961 75.4489 85.925 76.4628C86.354 77.4766 86.5684 78.5424 86.5684 79.6603C86.5684 81.207 86.198 82.6173 85.4571 83.8911C84.7032 85.1649 83.6958 86.1853 82.435 86.9522C81.1742 87.7061 79.7704 88.083 78.2237 88.083ZM78.8281 65.0375H75.7865V71.3155H78.8281C79.7509 71.3155 80.4983 70.9906 81.0702 70.3407C81.6422 69.6778 81.9281 68.9629 81.9281 68.196C81.9281 67.3511 81.6227 66.6167 81.0118 65.9928C80.4008 65.3559 79.673 65.0375 78.8281 65.0375ZM78.2237 76.1508H75.7865L75.7475 83.2087H78.2237C79.1855 83.2087 80.0109 82.8578 80.6998 82.1559C81.3887 81.454 81.7331 80.6221 81.7331 79.6603C81.7331 78.6984 81.3887 77.873 80.6998 77.1841C80.0109 76.4952 79.1855 76.1508 78.2237 76.1508ZM94.1528 88.083H89.6295C89.4995 88.083 89.4345 88.018 89.4345 87.888L89.4735 60.4557C89.4735 60.3517 89.5255 60.2997 89.6295 60.2997H94.1138C94.2178 60.2997 94.2698 60.3517 94.2698 60.4557L94.3088 87.888C94.3088 88.018 94.2568 88.083 94.1528 88.083ZM104.603 88.4729C103.186 88.4729 101.88 88.109 100.684 87.3811C99.5015 86.6532 98.5526 85.6849 97.8377 84.476C97.1358 83.2542 96.7849 81.9154 96.7849 80.4597V78.6269C96.7849 78.484 96.8499 78.4125 96.9799 78.4125H101.464C101.568 78.4125 101.62 78.484 101.62 78.6269V80.4597C101.62 81.3305 101.913 82.0844 102.498 82.7213C103.082 83.3452 103.784 83.6572 104.603 83.6572C105.435 83.6572 106.143 83.3387 106.728 82.7018C107.313 82.0519 107.606 81.3045 107.606 80.4597C107.606 79.4848 106.969 78.6334 105.695 77.9055C105.487 77.7756 105.214 77.6196 104.876 77.4376C104.551 77.2426 104.161 77.0217 103.706 76.7747C103.251 76.5277 102.809 76.2873 102.381 76.0533C101.952 75.8064 101.536 75.5724 101.133 75.3514C99.6769 74.4935 98.5916 73.4212 97.8767 72.1344C97.1748 70.8346 96.8239 69.3788 96.8239 67.7671C96.8239 66.2853 97.1878 64.9465 97.9157 63.7507C98.6436 62.5678 99.5925 61.632 100.762 60.9431C101.945 60.2412 103.225 59.8902 104.603 59.8902C106.02 59.8902 107.32 60.2412 108.503 60.9431C109.685 61.658 110.628 62.6068 111.33 63.7897C112.045 64.9725 112.402 66.2983 112.402 67.7671V71.0426C112.402 71.1466 112.35 71.1985 112.246 71.1985H107.762C107.658 71.1985 107.606 71.1466 107.606 71.0426L107.567 67.7671C107.567 66.8312 107.274 66.0708 106.689 65.4859C106.104 64.901 105.409 64.6085 104.603 64.6085C103.784 64.6085 103.082 64.9205 102.498 65.5444C101.913 66.1683 101.62 66.9092 101.62 67.7671C101.62 68.6379 101.802 69.3658 102.166 69.9507C102.543 70.5356 103.225 71.0946 104.213 71.6275C104.317 71.6795 104.558 71.8095 104.935 72.0174C105.312 72.2254 105.728 72.4594 106.182 72.7193C106.65 72.9663 107.073 73.1937 107.45 73.4017C107.827 73.5967 108.054 73.7137 108.132 73.7527C109.458 74.4935 110.504 75.4034 111.271 76.4823C112.051 77.5611 112.441 78.8869 112.441 80.4597C112.441 81.9804 112.09 83.3452 111.388 84.554C110.673 85.7629 109.724 86.7182 108.542 87.4201C107.359 88.122 106.046 88.4729 104.603 88.4729ZM123.73 88.083H119.226C119.109 88.083 119.051 88.018 119.051 87.888V65.1155H113.864C113.734 65.1155 113.669 65.0505 113.669 64.9205L113.708 60.4557C113.708 60.3517 113.76 60.2997 113.864 60.2997H129.033C129.176 60.2997 129.248 60.3517 129.248 60.4557V64.9205C129.248 65.0505 129.196 65.1155 129.092 65.1155H123.847L123.886 87.888C123.886 88.018 123.834 88.083 123.73 88.083ZM135.877 88.083H131.353C131.249 88.083 131.197 88.018 131.197 87.888L131.275 60.4557C131.275 60.3517 131.327 60.2997 131.431 60.2997H139.503C140.946 60.2997 142.272 60.6506 143.48 61.3525C144.689 62.0544 145.651 62.9968 146.366 64.1796C147.094 65.3624 147.458 66.7012 147.458 68.196C147.458 69.1708 147.308 70.0547 147.009 70.8476C146.71 71.6405 146.359 72.3099 145.956 72.8558C145.567 73.4017 145.209 73.8047 144.884 74.0646C146.327 75.6634 147.048 77.5416 147.048 79.6993L147.087 87.888C147.087 88.018 147.022 88.083 146.892 88.083H142.369C142.265 88.083 142.213 88.044 142.213 87.966V79.6993C142.213 78.7374 141.875 77.9055 141.199 77.2036C140.523 76.5017 139.691 76.1508 138.704 76.1508H136.071L136.032 87.888C136.032 88.018 135.98 88.083 135.877 88.083ZM139.503 65.0765H136.071V71.3545H139.503C140.322 71.3545 141.05 71.0491 141.687 70.4382C142.337 69.8273 142.661 69.0799 142.661 68.196C142.661 67.3511 142.35 66.6232 141.726 66.0123C141.102 65.3884 140.361 65.0765 139.503 65.0765ZM157.85 88.4729C156.433 88.4729 155.127 88.109 153.931 87.3811C152.748 86.6532 151.793 85.6849 151.065 84.476C150.35 83.2542 149.992 81.9154 149.992 80.4597L150.031 67.8061C150.031 66.3243 150.389 64.992 151.104 63.8092C151.806 62.6133 152.754 61.658 153.95 60.9431C155.146 60.2152 156.446 59.8512 157.85 59.8512C159.305 59.8512 160.612 60.2087 161.769 60.9236C162.938 61.6385 163.874 62.6003 164.576 63.8092C165.291 65.005 165.649 66.3373 165.649 67.8061L165.688 80.4597C165.688 81.9154 165.337 83.2477 164.635 84.4566C163.92 85.6784 162.971 86.6532 161.788 87.3811C160.605 88.109 159.292 88.4729 157.85 88.4729ZM157.85 83.6572C158.656 83.6572 159.357 83.3322 159.955 82.6823C160.553 82.0194 160.852 81.2785 160.852 80.4597L160.813 67.8061C160.813 66.9222 160.534 66.1748 159.975 65.5639C159.416 64.953 158.708 64.6475 157.85 64.6475C157.031 64.6475 156.329 64.9465 155.744 65.5444C155.159 66.1423 154.867 66.8962 154.867 67.8061V80.4597C154.867 81.3305 155.159 82.0844 155.744 82.7213C156.329 83.3452 157.031 83.6572 157.85 83.6572Z" fill="#C7A589"/>
<path d="M42.35 0V34.7011C42.35 38.0477 43.7098 41.2573 46.1303 43.6237C48.5507 45.9902 51.8336 47.3196 55.2566 47.3196V88.33H68.1633V47.3196C71.5864 47.3196 74.8692 45.9902 77.2897 43.6237C79.7102 41.2573 81.07 38.0477 81.07 34.7011V0H68.1633V34.7011H55.2566V0H42.35Z" fill="#582B02"/>
<path d="M12.9067 63.0929H25.8133C29.2364 63.0929 32.5193 61.7634 34.9397 59.397C37.3602 57.0305 38.72 53.8209 38.72 50.4743V27.8555C38.72 20.4678 35.7182 13.3826 30.375 8.15869C25.0319 2.93477 17.7849 0 10.2285 0H0V88.33H12.9067V63.0929ZM12.9067 12.8394C16.522 13.456 19.7989 15.3002 22.1599 18.0471C24.521 20.794 25.8147 24.2675 25.8133 27.8555V50.4743H12.9067V12.8394Z" fill="#582B02"/>
<path d="M88.9444 52.434V51.5442C88.9444 50.9565 89.1855 50.4202 89.5739 50.0314L89.5769 50.0287C89.9653 49.6408 90.5012 49.4 91.0886 49.4H92.8318C93.4195 49.4 93.9558 49.6412 94.3446 50.0295L94.3472 50.0326C94.7352 50.4209 94.976 50.9569 94.976 51.5442V52.434H95.8658C96.4542 52.434 96.991 52.6755 97.3793 53.0647C97.7688 53.4519 98.01 53.9882 98.01 54.5782V56.3214C98.01 56.9091 97.7688 57.4455 97.3805 57.8342L97.3774 57.8369C96.9891 58.2249 96.4531 58.4656 95.8658 58.4656H94.976V59.3558C94.976 59.9431 94.7352 60.4791 94.3472 60.8674L94.3446 60.8705C93.9558 61.2589 93.4195 61.5 92.8318 61.5H91.0886C90.5012 61.5 89.9653 61.2593 89.5769 60.8713L89.5739 60.8686C89.1855 60.4799 88.9444 59.9435 88.9444 59.3558V58.4656H88.0542C87.4642 58.4656 86.9278 58.2245 86.5395 57.8361L86.5115 57.8058C86.1396 57.4198 85.91 56.8949 85.91 56.3214V54.5782C85.91 53.9905 86.1511 53.4542 86.5395 53.0654L86.5425 53.0627C86.9309 52.6748 87.4668 52.434 88.0542 52.434H88.9444ZM92.9464 59.9431C92.6765 59.9431 92.4584 59.725 92.4584 59.4563C92.4584 59.1875 92.6765 58.9694 92.9452 58.9694C93.2163 58.9694 93.4344 59.1875 93.4344 59.4563C93.4344 59.725 93.2163 59.9431 92.9464 59.9431ZM90.9736 51.9303C90.7037 51.9303 90.4855 51.7121 90.4855 51.4434C90.4855 51.1746 90.7037 50.9565 90.9724 50.9565C91.2435 50.9565 91.4616 51.1746 91.4616 51.4434C91.4616 51.7121 91.2435 51.9303 90.9736 51.9303ZM94.976 53.4078V53.7904C94.976 54.3816 94.7348 54.9187 94.3465 55.307C93.9577 55.6958 93.4206 55.9369 92.8295 55.9369L91.0909 55.9346C90.7685 55.9365 90.4752 56.0684 90.2624 56.2812C90.0504 56.4932 89.9181 56.7868 89.9181 57.1092V59.3558C89.9181 59.6782 90.0496 59.9715 90.2605 60.182C90.4729 60.3947 90.7662 60.5262 91.0886 60.5262H92.8318C93.1542 60.5262 93.4475 60.3947 93.6579 60.1839C93.8707 59.9715 94.0022 59.6782 94.0022 59.3558V58.4656H91.96C91.6912 58.4656 91.4731 58.2475 91.4731 57.9787C91.4731 57.71 91.6912 57.4919 91.96 57.4919H95.8658C96.1882 57.4919 96.4815 57.3604 96.6919 57.1495C96.9047 56.9371 97.0362 56.6438 97.0362 56.3214V54.5782C97.0362 54.257 96.9039 53.9641 96.6919 53.7521C96.4815 53.5393 96.1882 53.4078 95.8658 53.4078H94.976ZM88.9444 57.4919V57.1092C88.9444 56.5181 89.1855 55.981 89.5739 55.5926C89.9626 55.2039 90.4997 54.9627 91.0909 54.9627L92.8295 54.965C93.1519 54.9631 93.4452 54.8312 93.6579 54.6185C93.8699 54.4065 94.0022 54.1128 94.0022 53.7904V51.5442C94.0022 51.2218 93.8707 50.9285 93.6598 50.718C93.4475 50.5053 93.1542 50.3738 92.8318 50.3738H91.0886C90.7662 50.3738 90.4729 50.5053 90.2624 50.7161C90.0496 50.9285 89.9181 51.2218 89.9181 51.5442V52.434H91.9604C92.2291 52.434 92.4472 52.6522 92.4472 52.9209C92.4472 53.1896 92.2291 53.4078 91.9604 53.4078H88.0542C87.7318 53.4078 87.4385 53.5393 87.228 53.7501C87.0152 53.9625 86.8837 54.2558 86.8837 54.5782V56.3214C86.8837 56.6331 87.0068 56.9179 87.2054 57.1265L87.228 57.1476C87.44 57.3596 87.7329 57.4919 88.0542 57.4919H88.9444Z" fill="#C7A589"/>
</svg>
